<?xml version="1.0" encoding="UTF-8"?>
<svg width="16px" height="19px" viewBox="0 0 16 19" version="1.1" xmlns="http://www.w3.org/2000/svg" xmlns:xlink="http://www.w3.org/1999/xlink">
    <!-- Generator: Sketch 48.1 (47250) - http://www.bohemiancoding.com/sketch -->
    <title>add File</title>
    <desc>Created with Sketch.</desc>
    <defs></defs>
    <g id="Cashout-3" stroke="none" stroke-width="1" fill="none" fill-rule="evenodd" transform="translate(-452.000000, -956.000000)">
        <g id="Group-7" transform="translate(281.000000, 656.000000)" fill="#BDBDBD">
            <path d="M172.636715,316.632811 C171.980467,315.953125 171.535155,315.144533 171.300781,314.207036 C171.066406,313.269538 171.072266,312.337899 171.318359,311.41212 C171.564452,310.486341 172.027342,309.683609 172.707027,309.003923 L180.054666,301.445347 C180.57029,300.929723 181.173804,300.578162 181.865209,300.390662 C182.556614,300.203163 183.242159,300.203163 183.921844,300.390662 C184.60153,300.578162 185.199185,300.929723 185.714809,301.445347 C186.230433,301.960971 186.576135,302.564485 186.751916,303.25589 C186.927697,303.947295 186.927697,304.638699 186.751916,305.330104 C186.576135,306.021508 186.230433,306.625022 185.714809,307.140646 L179.281231,313.714849 C178.765607,314.25391 178.132796,314.517581 177.382798,314.505863 C176.6328,314.494144 176.005848,314.224614 175.501943,313.697271 C174.998038,313.169929 174.751945,312.537118 174.763663,311.798838 C174.775382,311.060559 175.039053,310.433607 175.554677,309.917983 L180.582009,304.750027 C180.699196,304.656277 180.833961,304.603543 180.986305,304.591824 C181.138648,304.580106 181.273413,304.63284 181.390601,304.750027 L182.199192,305.523462 C182.316379,305.64065 182.374973,305.775415 182.374973,305.927758 C182.374973,306.080102 182.316379,306.214867 182.199192,306.332054 L177.136704,311.500011 C177.066392,311.593761 177.025376,311.705088 177.013658,311.833994 C177.001939,311.9629 177.037095,312.068369 177.119126,312.1504 C177.201157,312.232431 177.294907,312.273446 177.400376,312.273446 C177.505844,312.273446 177.593735,312.226572 177.664047,312.132822 L184.097625,305.593775 C184.449187,305.218776 184.624968,304.785183 184.624968,304.292997 C184.624968,303.80081 184.455047,303.378936 184.115203,303.027375 C183.77536,302.675813 183.371064,302.500032 182.902316,302.500032 C182.433567,302.500032 182.023412,302.675813 181.67185,303.027375 L174.289055,310.550794 C173.679682,311.183605 173.374995,311.939463 173.374995,312.818367 C173.374995,313.697271 173.673822,314.447269 174.271477,315.068362 C174.869132,315.689454 175.589833,316 176.433581,316 C177.277329,316 177.992171,315.695313 178.578107,315.08594 L184.624968,308.898454 C184.742155,308.781267 184.876921,308.722674 185.029264,308.722674 C185.181607,308.722674 185.316373,308.781267 185.43356,308.898454 L186.242151,309.67189 C186.359338,309.789077 186.417932,309.923843 186.417932,310.076186 C186.417932,310.228529 186.359338,310.363295 186.242151,310.480482 L180.195291,316.667967 C179.515605,317.37109 178.712872,317.839839 177.787093,318.074214 C176.861315,318.308588 175.941395,318.302729 175.027334,318.056636 C174.113274,317.810543 173.316401,317.335934 172.636715,316.632811 Z" id="add-File"></path>
        </g>
    </g>
</svg>